name Walk3.mot
datacolumns 19
datarows 15
range 3.26100000 3.27500000
endheader

                time	   L_ground_force_vx	   L_ground_force_vy	   L_ground_force_vz	   L_ground_force_px	   L_ground_force_py	   L_ground_force_pz	   R_ground_force_vx	   R_ground_force_vy	   R_ground_force_vz	   R_ground_force_px	   R_ground_force_py	   R_ground_force_pz	   L_ground_torque_x	   L_ground_torque_y	   L_ground_torque_z	   R_ground_torque_x	   R_ground_torque_y	   R_ground_torque_z	
          3.26100000	          0.00000000	          0.00000000	         -0.00000000	         -0.00000000	          0.00000000	         -0.00000000	          3.99424653	         16.78203437	          1.31941587	          0.15303668	          0.00000000	          0.05154973	          0.00000000	          0.00000000	          0.00000000	          0.00000000	         -1.28046835	          0.00000000	
          3.26200000	          0.00000000	          0.00000000	         -0.00000000	         -0.00000000	          0.00000000	         -0.00000000	          3.50146791	         14.46583154	          1.29350609	          0.14538170	          0.00000000	          0.04889046	          0.00000000	          0.00000000	          0.00000000	          0.00000000	         -1.16632290	          0.00000000	
          3.26300000	          0.00000000	          0.00000000	         -0.00000000	         -0.00000000	          0.00000000	         -0.00000000	          3.03735615	         12.29189890	          1.26491141	          0.13782821	          0.00000000	          0.04627255	          0.00000000	          0.00000000	          0.00000000	          0.00000000	         -1.05747531	          0.00000000	
          3.26400000	          0.00000000	          0.00000000	         -0.00000000	         -0.00000000	          0.00000000	         -0.00000000	          2.60122764	         10.25635485	          1.23396816	          0.13039614	          0.00000000	          0.04370238	          0.00000000	          0.00000000	          0.00000000	          0.00000000	         -0.95388644	          0.00000000	
          3.26500000	          0.00000000	          0.00000000	         -0.00000000	         -0.00000000	          0.00000000	         -0.00000000	          2.19235116	          8.35512486	          1.20099295	          0.12310323	          0.00000000	          0.04118558	          0.00000000	          0.00000000	          0.00000000	          0.00000000	         -0.85550061	          0.00000000	
          3.26600000	          0.00000000	          0.00000000	         -0.00000000	         -0.00000000	          0.00000000	         -0.00000000	          1.80995468	          6.58397328	          1.16628316	          0.11596521	          0.00000000	          0.03872715	          0.00000000	          0.00000000	          0.00000000	          0.00000000	         -0.76224722	          0.00000000	
          3.26700000	          0.00000000	          0.00000000	         -0.00000000	         -0.00000000	          0.00000000	         -0.00000000	          1.45323174	          4.93853308	          1.13011743	          0.10899590	          0.00000000	          0.03633140	          0.00000000	          0.00000000	          0.00000000	          0.00000000	         -0.67404227	          0.00000000	
          3.26800000	          0.00000000	          0.00000000	         -0.00000000	         -0.00000000	          0.00000000	         -0.00000000	          1.12134744	          3.41433350	          1.09275621	          0.10220727	          0.00000000	          0.03400206	          0.00000000	          0.00000000	          0.00000000	          0.00000000	         -0.59078982	          0.00000000	
          3.26900000	          0.00000000	          0.00000000	         -0.00000000	         -0.00000000	          0.00000000	         -0.00000000	          0.81344402	          2.00682574	          1.05444233	          0.09560963	          0.00000000	          0.03174228	          0.00000000	          0.00000000	          0.00000000	          0.00000000	         -0.51238338	          0.00000000	
          3.27000000	          0.00000000	          0.00000000	         -0.00000000	         -0.00000000	          0.00000000	         -0.00000000	          0.52864601	          0.71140682	          1.01540156	          0.08921166	          0.00000000	          0.02955470	          0.00000000	          0.00000000	          0.00000000	          0.00000000	         -0.43870721	          0.00000000	
          3.27100000	          0.00000000	          0.00000000	         -0.00000000	         -0.00000000	          0.00000000	         -0.00000000	          0.26606509	         -0.47655842	          0.97584323	          0.08302055	          0.00000000	          0.02744143	          0.00000000	          0.00000000	          0.00000000	          0.00000000	         -0.36963752	          0.00000000	
          3.27200000	          0.00000000	          0.00000000	         -0.00000000	         -0.00000000	          0.00000000	         -0.00000000	          0.02480449	         -1.56171711	          0.93596083	          0.07704213	          0.00000000	          0.02540414	          0.00000000	          0.00000000	          0.00000000	          0.00000000	         -0.30504364	          0.00000000	
          3.27300000	          0.00000000	          0.00000000	         -0.00000000	         -0.00000000	          0.00000000	         -0.00000000	         -0.19603685	         -2.54870972	          0.89593262	          0.07128090	          0.00000000	          0.02344408	          0.00000000	          0.00000000	          0.00000000	          0.00000000	         -0.24478912	          0.00000000	
          3.27400000	          0.00000000	          0.00000000	         -0.00000000	         -0.00000000	          0.00000000	         -0.00000000	         -0.39736057	         -3.44215312	          0.85592225	          0.06574015	          0.00000000	          0.02156208	          0.00000000	          0.00000000	          0.00000000	          0.00000000	         -0.18873269	          0.00000000	
          3.27500000	          0.00000000	          0.00000000	         -0.00000000	         -0.00000000	          0.00000000	         -0.00000000	         -0.58006537	         -4.24662516	          0.81607940	          0.06042208	          0.00000000	          0.01975862	          0.00000000	          0.00000000	          0.00000000	          0.00000000	         -0.13672923	          0.00000000	
